<svg id="Layer_1" data-name="Layer 1" xmlns="http://www.w3.org/2000/svg" viewBox="0 0 513 513"><defs> </defs><path fill="currentColor" d="M46,28.72V64.56c0,7.07,4.71,12.8,10.53,12.8h400c5.82,0,10.53-5.73,10.53-12.8V28.72c0-7.07-4.71-12.8-10.53-12.8H56.5C50.68,15.92,46,21.65,46,28.72Z"/><path fill="currentColor" d="M51.51,306.82,70.59,330.9a25.6,25.6,0,0,0,36,4.16l150-118.84,150,118.84a25.6,25.6,0,0,0,36-4.16l19.08-24.08a25.6,25.6,0,0,0-4.16-36L272.4,124.3a25.59,25.59,0,0,0-31.8,0L55.67,270.86A25.6,25.6,0,0,0,51.51,306.82Z"/><path fill="currentColor" d="M51.51,463.3l19.08,24.08a25.6,25.6,0,0,0,36,4.16l150-118.84,150,118.84a25.6,25.6,0,0,0,36-4.16l19.08-24.08a25.6,25.6,0,0,0-4.16-36L272.4,280.78a25.58,25.58,0,0,0-31.8,0L55.67,427.34A25.6,25.6,0,0,0,51.51,463.3Z"/></svg>