<svg id="Layer_1" data-name="Layer 1" xmlns="http://www.w3.org/2000/svg" viewBox="0 0 513 513"><defs> </defs><path fill="currentColor" d="M46,28.72V64.56c0,7.07,4.71,12.8,10.53,12.8h400c5.82,0,10.53-5.73,10.53-12.8V28.72c0-7.07-4.71-12.8-10.53-12.8H56.5C50.68,15.92,46,21.65,46,28.72Z"/><path fill="currentColor" d="M461.49,309l-19.08-24.08a25.6,25.6,0,0,0-36-4.16L256.5,399.62,106.55,280.78a25.6,25.6,0,0,0-36,4.16L51.51,309a25.6,25.6,0,0,0,4.16,36L240.6,491.54a25.6,25.6,0,0,0,31.8,0L457.33,345A25.6,25.6,0,0,0,461.49,309Z"/><path fill="currentColor" d="M461.49,152.54l-19.08-24.08a25.6,25.6,0,0,0-36-4.16L256.5,243.14,106.55,124.3a25.6,25.6,0,0,0-36,4.16L51.51,152.54a25.6,25.6,0,0,0,4.16,36L240.6,335.06a25.58,25.58,0,0,0,31.8,0L457.33,188.5A25.6,25.6,0,0,0,461.49,152.54Z"/></svg>